<svg id="Layer_35" data-name="Layer 35" xmlns="http://www.w3.org/2000/svg" xmlns:xlink="http://www.w3.org/1999/xlink" viewBox="0 0 749 282"><defs><style>.cls-1,.cls-5{fill:none;}.cls-2{clip-path:url(#clip-path);}.cls-3{fill:#f4eaea;}.cls-4{fill:#f21919;}.cls-5{stroke:#000;stroke-miterlimit:10;stroke-width:2px;}.cls-10,.cls-13,.cls-6{fill:#161515;}.cls-6{opacity:0.53;}.cls-7{clip-path:url(#clip-path-2);}.cls-8{fill:#1381e5;}.cls-9{fill:#3ab730;}.cls-10{opacity:0.4;}.cls-11{fill:#ada1a1;}.cls-12{fill:#4c4848;}.cls-13{opacity:0.41;}</style><clipPath id="clip-path" transform="translate(-92 -260)"><path class="cls-1" d="M784,459.82c0-.27,0-.55,0-.82V287a27,27,0,0,0-54,0V459c0,.27,0,.55,0,.82a42,42,0,1,0,54,0Z"/></clipPath><clipPath id="clip-path-2" transform="translate(-92 -260)"><circle class="cls-1" cx="536" cy="406" r="92"/></clipPath></defs><title>first-grapihc</title><g id="thermometer"><g class="cls-2"><path class="cls-3" d="M784,459.82c0-.27,0-.55,0-.82V287a27,27,0,0,0-54,0V459c0,.27,0,.55,0,.82a42,42,0,1,0,54,0Z" transform="translate(-92 -260)"/><rect class="cls-4" x="581" y="88" width="168" height="194"/></g><g id="ticks"><line class="cls-5" x1="640" y1="34" x2="647" y2="34"/><line class="cls-5" x1="640" y1="46" x2="647" y2="46"/><line class="cls-5" x1="640" y1="58" x2="647" y2="58"/><line class="cls-5" x1="640" y1="70" x2="647" y2="70"/><line class="cls-5" x1="640" y1="82" x2="647" y2="82"/><line class="cls-5" x1="640" y1="94" x2="647" y2="94"/><line class="cls-5" x1="640" y1="106" x2="647" y2="106"/><line class="cls-5" x1="640" y1="118" x2="647" y2="118"/><line class="cls-5" x1="640" y1="130" x2="647" y2="130"/><line class="cls-5" x1="640" y1="142" x2="647" y2="142"/><line class="cls-5" x1="640" y1="154" x2="647" y2="154"/><line class="cls-5" x1="640" y1="166" x2="647" y2="166"/><line class="cls-5" x1="640" y1="178" x2="647" y2="178"/><line class="cls-5" x1="640" y1="190" x2="647" y2="190"/></g><path class="cls-6" d="M782,463s15,13,13,32Z" transform="translate(-92 -260)"/></g><g id="earth"><g class="cls-7"><circle class="cls-8" cx="444" cy="146" r="92"/><path class="cls-9" d="M496.19,386a10.67,10.67,0,0,1,5.61-5.73c18.66-8,51.6-14.6,66.68,1.48,11.56,12.33,7.24,41.56-16.66,41.51a3.21,3.21,0,0,0-3.2,3.72c2.71,15.83,8.29,34.82-3.12,46.87-17.13,18.1-29.21,6.81-34.91-11.42-4.11-13.15,9.18-27.61,5.41-41.41C511,402.73,485.54,411.6,496.19,386Z" transform="translate(-92 -260)"/><path class="cls-9" d="M584,332c-6.3,27.89-41.15,3.19-48,24-7.29,22.15,38.64,25.72,49.8,24C644.39,371,604,311.77,584,332Z" transform="translate(-92 -260)"/><path class="cls-9" d="M465.39,347c43.65,4.19-3.64,39.74-7.39,50-13.22,36.09,25.12,53.14,24,83.49-88,4.07-47.91-94.68-26-138.49Z" transform="translate(-92 -260)"/></g><path class="cls-10" d="M621,403c0,39.49-23,72-43.76,72s9.68-29.51,9.68-69-30.42-74-9.68-74S621,363.56,621,403Z" transform="translate(-92 -260)"/></g><g id="emissions"><path class="cls-11" d="M359.12,345.8c-1.1,0-2.18.05-3.25.13A53.72,53.72,0,0,0,329,339c-15.4,0-29,6-37.09,15.2a60.43,60.43,0,0,0-31.43-8.4c-27.13,0-49.17,16.3-49.73,36.57a72,72,0,0,0-15.31-1.63c-27.24,0-49.32,14.78-49.32,33a23.88,23.88,0,0,0,3.8,12.72c-14,.66-24.75,4.71-24.75,9.61,0,5.36,12.9,9.71,28.81,9.71a68.37,68.37,0,0,0,19.38-2.53,69.34,69.34,0,0,0,22.08,3.5A66.17,66.17,0,0,0,225.37,440c4.58,18.1,32,32,65.22,32,24.57,0,46-7.63,57.31-18.93a44.37,44.37,0,0,0,11.22,1.46c27,0,48.88-24.34,48.88-54.37S386.11,345.8,359.12,345.8Z" transform="translate(-92 -260)"/><rect class="cls-12" y="169.28" width="44.52" height="14.56"/><path class="cls-13" d="M275.78,351.55c.78,2.64-15.88-.22-31.78,4.45s-25,15.1-25.78,12.45S229.1,354.67,245,350,275,348.9,275.78,351.55Z" transform="translate(-92 -260)"/><path class="cls-13" d="M341.81,343.24c.52,1.75-13.25.67-26.76,4.64s-21.65,11.48-22.16,9.73,9.79-9.87,23.3-13.84S341.3,341.49,341.81,343.24Z" transform="translate(-92 -260)"/></g></svg>