<svg id="fish" xmlns="http://www.w3.org/2000/svg" viewBox="0 0 208 202.17"><defs><style>.cls-1{fill:#db6d00;}.cls-2{fill:#fff;}</style></defs><title>fish1</title><g id="fish_1" data-name="fish 1"><path class="cls-1" d="M13.67,1851.34c57-16.77,167.44-29.46,193.33-169,0,0-87.2-97.38-208,41.68,0,0,1,39,1,106l1,21Z" transform="translate(1 -1649.17)"/><path class="cls-2" d="M113.78,1709.06a20.28,20.28,0,1,0,8.13-27.51A20.28,20.28,0,0,0,113.78,1709.06Z" transform="translate(1 -1649.17)"/><path class="cls-1" d="M134.18,1689.41a10.14,10.14,0,1,0,13.76,4.07A10.14,10.14,0,0,0,134.18,1689.41Z" transform="translate(1 -1649.17)"/></g></svg>