<svg id="fish" xmlns="http://www.w3.org/2000/svg" viewBox="0 0 270.65 111.32"><defs><style>.cls-1{fill:#db6d00;}.cls-2{fill:#fff;}</style></defs><title>fish2</title><g id="fish_2" data-name="fish 2"><path class="cls-1" d="M793.17,1669.61s-16.89,19,14,51.15l77,46.88s-12.64-32.18,10.81-58.25c0,0-59.83,25.57-99.5,34.1s-110.09,36.94-171.15-38.36C624.35,1705.13,675.31,1625.57,793.17,1669.61Z" transform="translate(-624.35 -1656.32)"/><path class="cls-2" d="M689,1690.76a13.85,13.85,0,1,1-13.85-13.85A13.85,13.85,0,0,1,689,1690.76Z" transform="translate(-624.35 -1656.32)"/><path class="cls-1" d="M670.36,1685.63a6.93,6.93,0,1,1-6.93,6.93A6.92,6.92,0,0,1,670.36,1685.63Z" transform="translate(-624.35 -1656.32)"/></g></svg>