<svg id="greenhouse_diagram" data-name="greenhouse diagram" xmlns="http://www.w3.org/2000/svg" viewBox="0 0 829 367.79"><defs><style>.cls-1{fill:#1381e5;}.cls-2{fill:#3ab730;}.cls-3,.cls-9{fill:#161515;}.cls-3{opacity:0.4;}.cls-4{fill:#ff8206;}.cls-5{fill:#727272;}.cls-6{fill:#515151;}.cls-7{fill:#f4eaea;}.cls-8{fill:#f21919;}.cls-9{opacity:0.53;}.cls-10{fill:#3f4340;}.cls-11{fill:#fbb138;}.cls-12{fill:#d2edf3;}.cls-13{fill:#adadad;}.cls-14{fill:#ed3224;}.cls-15{fill:#d6d6d6;}.cls-16{fill:#c9892d;}.cls-17{fill:#4c4848;}.cls-18{fill:#726b6b;}</style></defs><title>greenhouse</title><path class="cls-1" d="M894,3220.26v-6.12c-.94.88-2,1.77-3,2.64C892,3217.93,893,3219.09,894,3220.26Z" transform="translate(-65 -2902.21)"/><path class="cls-1" d="M759.65,3132c-55.48-17.73-119.5-29.85-188.51-34.66l-1.4,36.14,47.92-7.29,2.81,46.55c20.81.12,41.74,0,60.47-2.14-12.75-20.46-10.87-32.72,29.14-32.72a228.87,228.87,0,0,1,32.5,2.38c.43-.78.86-1.56,1.25-2.38A93.67,93.67,0,0,1,759.65,3132Z" transform="translate(-65 -2902.21)"/><path class="cls-1" d="M304.38,3175.24l57.68,28.82-5.36-48.35,52.65-15.37-15.6-39c-24.48,2.88-48.17,6.7-70.93,11.37Z" transform="translate(-65 -2902.21)"/><path class="cls-1" d="M333.42,3252.71c53.91-11,131.7-20.95,202.27-19.91-27.88-8.83-43.05-21.1-31.51-37.82,15.7-22.75,60.91-22.65,108.25-22.32l-2.26-37.24-48.82,7.43,1.78-46.06q-28.95-1.77-58.95-1.79a952.43,952.43,0,0,0-96.91,4.89l-5.08,1,17.9,44.72-54.67,16,5.21,46.93-2.5.28-2.92,5.84-70.39-35.17,19.11-64.8c-63,13.69-118.4,34-162.28,59h0c43.76,2,69.2,7,81.78,13.94l3.47-.33,2.17-4.76,4.48-.43,3.46,4.2,11.69-1.13c4.95-.48,16.68,8.3,23.83,14.1h0c3.49,2.82,5.89,4.94,5.89,4.94l14.67-1.42,0-.05c-.15-.25-.22-.39-.22-.39l3.46-.34c2.71-.26,6,1.8,9.14,4.91,9.69,6.86,17.6,19.68,8.58,20.55l-23.49,2.28a13,13,0,0,1-25,2.43l-70.22,6.81c-2.52,1.58-5.11,3.15-7.74,4.72a13,13,0,0,1-10.21,6.84,13.67,13.67,0,0,1-1.69,0C173.55,3257.38,161.09,3264,150,3270H302.37q1.41-1.78,3.05-3.67C310.73,3260.24,320.71,3255.31,333.42,3252.71Z" transform="translate(-65 -2902.21)"/><path class="cls-1" d="M654,3250.73c4.35,1.7,8.5,3.53,12.39,5.51A68.39,68.39,0,0,1,685.29,3270h63.09a185.16,185.16,0,0,0-8.63-17.26C718.93,3253.37,687.39,3252.91,654,3250.73Z" transform="translate(-65 -2902.21)"/><path class="cls-2" d="M666.36,3256.24c-3.89-2-8-3.81-12.39-5.51-42.44-2.76-87.9-8.31-118.28-17.93-70.57-1-148.36,8.87-202.27,19.91-12.71,2.6-22.69,7.53-28,13.62q-1.64,1.89-3.05,3.67H685.29A68.39,68.39,0,0,0,666.36,3256.24Z" transform="translate(-65 -2902.21)"/><path class="cls-2" d="M743.83,3137.85c-.39.82-.82,1.6-1.25,2.38a255.16,255.16,0,0,1,36.37,8,41.89,41.89,0,0,1,5.37-7.78q-12-4.43-24.67-8.47A93.67,93.67,0,0,0,743.83,3137.85Z" transform="translate(-65 -2902.21)"/><path class="cls-2" d="M854.59,3184.6A212.26,212.26,0,0,1,891,3216.78c1.07-.87,2.08-1.76,3-2.64v-16a333.41,333.41,0,0,0-36.45-24A41.7,41.7,0,0,1,854.59,3184.6Z" transform="translate(-65 -2902.21)"/><path class="cls-2" d="M620.47,3172.71l.6,9.9,47.26,5.49-.92,8-53.95-6.27-1-17.15c-47.34-.33-92.55-.43-108.25,22.32-11.54,16.72,3.63,29,31.51,37.82,45.08.66,87.2,5.79,118.28,17.93,33.42,2.18,65,2.64,85.78,2-18.55-32.92-46-61.66-58.81-82.17C662.21,3172.75,641.28,3172.83,620.47,3172.71Z" transform="translate(-65 -2902.21)"/><path class="cls-2" d="M654,3250.73c-31.08-12.14-73.2-17.27-118.28-17.93C566.07,3242.42,611.53,3248,654,3250.73Z" transform="translate(-65 -2902.21)"/><path class="cls-2" d="M197.58,3243.65c2.63-1.57,5.22-3.14,7.74-4.72l-6.39.62A13.1,13.1,0,0,1,197.58,3243.65Z" transform="translate(-65 -2902.21)"/><path class="cls-2" d="M173.92,3242l-24.31,2.36a2.76,2.76,0,0,1-2.94-1.65l-2.66-1.88-1.43.14-5.6-4.38.89-.09-5.65-4,.44-.62c-2.54.81-7.3-4-10.85-11.1a35.76,35.76,0,0,1-3.32-9.5,36.47,36.47,0,0,1-6.7-9.36c-.22-.44-.42-.89-.62-1.33-19.39,15.24-35,31.7-46.17,49.08V3270h85c11.08-6,23.54-12.62,35.67-19.47A13,13,0,0,1,173.92,3242Z" transform="translate(-65 -2902.21)"/><path class="cls-2" d="M142.08,3186.63c6.29,12.54,4.61,26.13-3.76,30.35a12.21,12.21,0,0,1-6.71,1.19c2.1,4.74,3,9.1,2.52,11.61l1.56-2.2,10.62,7.49a38,38,0,0,1,4-11.27h0a32.84,32.84,0,0,1,3.45-6.35c.32.15.73.36,1.15.61a5.8,5.8,0,0,1,2.84-1.22l8.39-.81c10.57-21.56,15.24-23.42,20.74-24l46.63-4.53c-12.58-6.93-38-11.94-81.78-13.94h0q-6.6,3.75-12.85,7.66A37,37,0,0,1,142.08,3186.63Z" transform="translate(-65 -2902.21)"/><path class="cls-1" d="M710.08,3137.85c-40,0-41.89,12.26-29.14,32.72,28-3.27,51.13-11.27,61.64-30.34A228.87,228.87,0,0,0,710.08,3137.85Z" transform="translate(-65 -2902.21)"/><path class="cls-3" d="M710.08,3137.85c-40,0-41.89,12.26-29.14,32.72,28-3.27,51.13-11.27,61.64-30.34A228.87,228.87,0,0,0,710.08,3137.85Z" transform="translate(-65 -2902.21)"/><path class="cls-1" d="M891,3216.78c-19.84,16.22-62.46,29.78-138.19,35.33-3.64.27-8,.48-13,.63a185.16,185.16,0,0,1,8.63,17.26H894v-49.74C893,3219.09,892,3217.93,891,3216.78Z" transform="translate(-65 -2902.21)"/><path class="cls-3" d="M891,3216.78c-19.84,16.22-62.46,29.78-138.19,35.33-3.64.27-8,.48-13,.63a185.16,185.16,0,0,1,8.63,17.26H894v-49.74C893,3219.09,892,3217.93,891,3216.78Z" transform="translate(-65 -2902.21)"/><path class="cls-2" d="M816,3210a42,42,0,0,1-37-61.78,255.16,255.16,0,0,0-36.37-8c-10.51,19.07-33.62,27.07-61.64,30.34,12.78,20.51,40.26,49.25,58.81,82.17,5-.15,9.4-.36,13-.63,75.73-5.55,118.35-19.11,138.19-35.33a212.26,212.26,0,0,0-36.39-32.18A42,42,0,0,1,816,3210Z" transform="translate(-65 -2902.21)"/><path class="cls-3" d="M816,3210a42,42,0,0,1-37-61.78,255.16,255.16,0,0,0-36.37-8c-10.51,19.07-33.62,27.07-61.64,30.34,12.78,20.51,40.26,49.25,58.81,82.17,5-.15,9.4-.36,13-.63,75.73-5.55,118.35-19.11,138.19-35.33a212.26,212.26,0,0,0-36.39-32.18A42,42,0,0,1,816,3210Z" transform="translate(-65 -2902.21)"/><path class="cls-4" d="M440.08,3040.88l31.42-8.24q-18.76.45-37.67,1.58l-3.78,1,14.54,49.46-53.49,10.1,2.65,6.6q6.72-.78,13.52-1.48l47.52-9Z" transform="translate(-65 -2902.21)"/><path class="cls-4" d="M409.35,3140.34l-52.65,15.37,5.36,48.35,6.73,3.36-.66,1.32,2.5-.28-5.21-46.93,54.67-16-17.9-44.72,5.08-1q-6.79.69-13.52,1.48Z" transform="translate(-65 -2902.21)"/><path class="cls-4" d="M571.8,3080.32l-50.59,2.9,15.36-45.46-18-5.17q-14.86-.33-29.86-.22l37.6,10.79-16.48,48.76,53.64-3.08-.3,7.95c2.68.16,5.35.34,8,.52Z" transform="translate(-65 -2902.21)"/><path class="cls-4" d="M617.66,3126.16l-47.92,7.29,1.4-36.14c-2.66-.18-5.33-.36-8-.52l-1.78,46.06,48.82-7.43,2.26,37.24,8,.05Z" transform="translate(-65 -2902.21)"/><path class="cls-4" d="M667.41,3196.08l.92-8-47.26-5.49-.6-9.9-8-.05,1,17.15Z" transform="translate(-65 -2902.21)"/><path class="cls-5" d="M471.53,3006.08a3,3,0,0,0,.43,1.57l-.43-1.59Z" transform="translate(-65 -2902.21)"/><path class="cls-5" d="M534.69,2998.68c0-1-.76-1.75-2.11-1.8a5,5,0,0,0-4.86,4C532.31,3001.06,534.62,3000.48,534.69,2998.68Z" transform="translate(-65 -2902.21)"/><path class="cls-5" d="M443.35,3009.88c3.24-.18,4.78-5,4.59-8.43-.11-1.84-1-3.76-3.37-3.63-3.39.19-4.84,5.24-4.63,8.34C440.07,3008.5,441.3,3010,443.35,3009.88Z" transform="translate(-65 -2902.21)"/><path class="cls-5" d="M271.05,3015.39a10.45,10.45,0,0,0-8.22,13.36c.74,3.2,2.57,4.95,5.08,5.36l2.63-6.48-.81.19-.19-4.8,3.16-.73,2.95-7.28A15.67,15.67,0,0,0,271.05,3015.39Z" transform="translate(-65 -2902.21)"/><path class="cls-5" d="M326.19,3012.88c-.18-1-1.11-1.55-2.44-1.32a5,5,0,0,0-3.92,4.9C324.36,3015.7,326.5,3014.66,326.19,3012.88Z" transform="translate(-65 -2902.21)"/><path class="cls-5" d="M355,3008.3c-.15-1-1.07-1.58-2.4-1.38a5,5,0,0,0-4.06,4.79C353.05,3011.07,355.22,3010.09,355,3008.3Z" transform="translate(-65 -2902.21)"/><path class="cls-5" d="M609.61,3014.9c1.75.22,4.15-1.51,5.66-6.28l1.5-4.48a9,9,0,0,0-1.56-.36c-3.79-.47-7.13,3.83-7.59,7.53C607.38,3013.26,608,3014.7,609.61,3014.9Z" transform="translate(-65 -2902.21)"/><path class="cls-5" d="M84.1,3093.29c12.27-6.2,26.48-3.35,33.84,6.13A1139.87,1139.87,0,0,1,257.81,3059l8-19.65a10.89,10.89,0,0,1-3.88-1.23,11.15,11.15,0,0,1-5.32-7.52,16.26,16.26,0,0,1,2.65-13.57,18.75,18.75,0,0,1,10.45-6.54l-30.51-9.07C160.52,3019.18,99.91,3041,65,3055.07v65.43l3-1.34C67.54,3109,73.58,3098.6,84.1,3093.29Z" transform="translate(-65 -2902.21)"/><path class="cls-5" d="M471.5,3032.64q8.61-.19,17.17-.27l-7.71-2.21Z" transform="translate(-65 -2902.21)"/><path class="cls-5" d="M843,3097.85q25.86,10.43,51,22.47V3054q-25.18-11.13-51-20.78Z" transform="translate(-65 -2902.21)"/><path class="cls-5" d="M279.56,3026.66l.36,8.81a33.51,33.51,0,0,1-4.92,2.45l-7.72,19c18-3.83,36.9-7.41,56.58-10.57q55.33-8.91,110-12.16l42.26-11.08-2.78-10.42a7.9,7.9,0,0,1-2.6.51c-3.19.08-5.16-1.68-5.25-5.5a18.11,18.11,0,0,1,.33-3.69l1.83-11.24,5.91-.13-.2,1.21,3-.82,2.08,7.78,1.39-8.32,5.9-.13L483.46,3006c-.43,2.56-.67,4.73-.91,6.54l-1,0,2.73,10.23,34.23,9.82q38.06.82,75.34,4.52a910.31,910.31,0,0,1,195.13,41v-63.18a973.67,973.67,0,0,0-190.48-37.86c-92.65-9.06-189-5.62-286.28,10.21-19.78,3.22-38.77,6.81-56.89,10.64l32,9.52Zm430.2,5.16a13.26,13.26,0,0,0,4.76,2.61c1.63.4,2.67-.19,2.9-1.15s-.23-1.79-1.81-3.1c-2-1.68-3.46-3.77-2.86-6.2,1-4,5.19-5.81,10.2-4.58a11,11,0,0,1,4.77,2.23l-2.35,3.73a9.26,9.26,0,0,0-3.69-1.84c-1.51-.37-2.71.05-3,1.09-.19.79.44,1.67,1.84,2.81,1.85,1.6,3.7,3.7,3,6.41-1.1,4.46-5.47,5.91-10.6,4.65a11.07,11.07,0,0,1-5.6-3Zm-27.57-8.93c1.28-6,6.95-11.25,14-9.72,4,.85,6.34,3.66,5.56,7.31-1.08,5-6.32,5.77-14.13,3.88a4,4,0,0,0,.17,2.14,4.61,4.61,0,0,0,3.44,2.33,12.65,12.65,0,0,0,5.76-.06l-.5,4.25a17.29,17.29,0,0,1-7.62,0C683.3,3031.77,681.09,3028,682.19,3022.89Zm-25.21-2a13.06,13.06,0,0,0,4.91,2.32c1.65.3,2.65-.35,2.82-1.32s-.34-1.77-2-3c-2.09-1.55-3.68-3.55-3.22-6,.74-4.07,4.83-6.11,9.91-5.18a11,11,0,0,1,4.89,1.94l-2.12,3.86a9.46,9.46,0,0,0-3.79-1.61c-1.53-.28-2.71.21-2.9,1.26-.15.81.53,1.64,2,2.7,1.94,1.48,3.91,3.47,3.4,6.21-.83,4.52-5.1,6.23-10.31,5.28a11.18,11.18,0,0,1-5.76-2.65Zm-24.91-4a13.22,13.22,0,0,0,5,2.18c1.66.26,2.63-.42,2.79-1.39s-.4-1.76-2.08-2.94c-2.13-1.49-3.78-3.45-3.4-5.92.64-4.09,4.67-6.25,9.77-5.45a10.94,10.94,0,0,1,5,1.8l-2,3.92a9.35,9.35,0,0,0-3.83-1.51c-1.54-.24-2.7.29-2.87,1.34-.12.81.58,1.63,2.08,2.65,2,1.42,4,3.36,3.58,6.11-.71,4.54-4.93,6.37-10.16,5.56a11.23,11.23,0,0,1-5.84-2.48Zm-30.69-5.25c.83-6.71,6.16-13.33,16-12.11a24,24,0,0,1,6.47,1.79l-3.41,10.16a49.22,49.22,0,0,0-1.88,8.85l-5.41-.67c.19-1.17.47-2.5.77-3.91h-.12c-2.24,3.06-4.9,3.85-7.22,3.56C603,3018.87,600.87,3015.8,601.38,3011.65Zm-34.45-8a16.3,16.3,0,0,1,6.73-12.09,18.86,18.86,0,0,1,12.48-2.95,18.53,18.53,0,0,1,7.2,1.86l-2.19,4.83a14.86,14.86,0,0,0-5.74-1.65,10.45,10.45,0,0,0-11.95,10.15c-.4,4.62,2.13,7.18,6.46,7.56a7.59,7.59,0,0,0,3-.23l1.6-5.71-4.24-.37,1.3-4.61,10,.87-4,14.17a29.77,29.77,0,0,1-9,.78c-3.8-.33-6.82-1.58-8.92-3.82A11.18,11.18,0,0,1,566.93,3003.65Zm-33.47-11c4.06.14,6.89,2.5,6.76,6.22-.18,5.13-5.2,6.8-13.23,6.31a4,4,0,0,0,.55,2.07,4.62,4.62,0,0,0,3.79,1.69,12.59,12.59,0,0,0,5.66-1.07l.26,4.27a17.27,17.27,0,0,1-7.51,1.3c-5.74-.2-8.57-3.54-8.39-8.75C521.57,2998.55,526.21,2992.35,533.46,2992.61Zm-37.3,14.5a13.24,13.24,0,0,0,5.24,1.43c1.68,0,2.55-.81,2.56-1.79s-.65-1.68-2.49-2.6c-2.33-1.16-4.24-2.86-4.23-5.36,0-4.14,3.7-6.86,8.86-6.83a11.07,11.07,0,0,1,5.16,1.06l-1.42,4.18a9.3,9.3,0,0,0-4-.93c-1.56,0-2.63.68-2.64,1.74,0,.82.81,1.53,2.45,2.31,2.16,1.13,4.45,2.74,4.43,5.53,0,4.59-3.94,7-9.23,7a11.19,11.19,0,0,1-6.14-1.6Zm-51.05-13.8c5.36-.29,8.67,3.22,8.92,7.77.41,7.32-4.29,13-11.25,13.35-5.07.28-8.66-2.85-8.93-7.81C433.46,2999.67,438,2993.71,445.11,2993.31Zm-39.55-5.76,5.88-.51-1.2,11.75.09,0a8.31,8.31,0,0,1,6.11-3.58c3.1-.27,5.19,1.52,5.49,4.95a24.81,24.81,0,0,1-.05,3.63l-1.17,11.63-5.88.51,1.09-11.13a12.29,12.29,0,0,0,.06-2.51c-.11-1.31-.76-2.2-2.23-2.07-2.05.18-3.91,2.85-4.34,7l-.92,9.3-5.88.51Zm-32.9,19.27c.19-2.58.26-4.82.29-6.6l5.21-.62V3003h.08a8.44,8.44,0,0,1,6.56-4.58c3.25-.38,5.32,1.39,5.73,4.81a25.68,25.68,0,0,1,.07,3.42l-.82,11.82-5.87.7.77-11.28a13.19,13.19,0,0,0-.06-2.26c-.17-1.39-.77-2.3-2.24-2.13-1.91.23-3.86,2.89-4.16,7.39l-.62,9-5.86.69Zm-20-4.27c4-.59,7.23,1.21,7.78,4.9.75,5.07-3.89,7.62-11.86,8.6a3.93,3.93,0,0,0,.91,1.94,4.63,4.63,0,0,0,4,1,12.7,12.7,0,0,0,5.37-2.08l1,4.16a17.25,17.25,0,0,1-7.15,2.63c-5.68.85-9.08-1.92-9.84-7.07C342,3010.55,345.48,3003.62,352.65,3002.55Zm-28.93,4.65c4-.71,7.26,1,7.91,4.68.9,5-3.67,7.72-11.61,8.92a3.94,3.94,0,0,0,1,1.91,4.62,4.62,0,0,0,4.07.87,12.49,12.49,0,0,0,5.3-2.24l1.15,4.13a17.2,17.2,0,0,1-7.07,2.84c-5.65,1-9.13-1.67-10-6.8C313.33,3015.5,316.58,3008.46,323.72,3007.2Zm-27,5.55c.14,1.35.29,2.7.45,4.09l.12,0c.84-2.89,2.67-5.19,5.36-5.74.36-.07.72-.14,1.09-.18l0,5.86a6.56,6.56,0,0,0-.93.14c-3.69.76-4.75,4.4-4.69,8.4l.12,7.59-5.78,1.18-.17-12.14c0-3.09-.47-6.43-.62-8.16Z" transform="translate(-65 -2902.21)"/><path class="cls-5" d="M696.37,3019.36c.21-1-.44-1.86-1.77-2.14a5,5,0,0,0-5.48,3.05C693.6,3021.28,696,3021.12,696.37,3019.36Z" transform="translate(-65 -2902.21)"/><path class="cls-5" d="M481,3030.16l-1.06-.3,2.22-7.72,2.18.63-2.73-10.23-4.23.09.3-3.29h-.09a9.62,9.62,0,0,1-4.24,3.37l2.78,10.42-42.26,11.08q18.9-1.12,37.67-1.58Z" transform="translate(-65 -2902.21)"/><path class="cls-5" d="M471.53,3006.06l.43,1.59a1.76,1.76,0,0,0,1.63.72c2,0,4-2.51,4.7-6.54l.16-1-2.08-7.78-3,.82-1.57,9.57A17,17,0,0,0,471.53,3006.06Z" transform="translate(-65 -2902.21)"/><path class="cls-5" d="M481,3030.16l7.71,2.21q15-.1,29.86.22l-34.23-9.82,1.63,6.09Z" transform="translate(-65 -2902.21)"/><polygon class="cls-5" points="414.9 127.65 415.96 127.95 420.93 126.65 419.3 120.56 417.12 119.93 414.9 127.65"/><path class="cls-6" d="M262.83,3028.75a10.45,10.45,0,0,1,8.22-13.36,15.67,15.67,0,0,1,4.6-.38l1-2.43-7-2.07a18.75,18.75,0,0,0-10.45,6.54,16.26,16.26,0,0,0-2.65,13.57,11.15,11.15,0,0,0,5.32,7.52,10.89,10.89,0,0,0,3.88,1.23l2.13-5.26C265.4,3033.7,263.57,3032,262.83,3028.75Z" transform="translate(-65 -2902.21)"/><polygon class="cls-6" points="204.73 125.61 205.54 125.42 207.7 120.08 204.54 120.81 204.73 125.61"/><path class="cls-6" d="M279.92,3035.47l-.36-8.81L275,3037.92A33.51,33.51,0,0,0,279.92,3035.47Z" transform="translate(-65 -2902.21)"/><path class="cls-6" d="M292.46,3034.07l5.78-1.18-.12-7.59c-.06-4,1-7.64,4.69-8.4a6.56,6.56,0,0,1,.93-.14l0-5.86c-.37,0-.73.11-1.09.18-2.69.55-4.52,2.85-5.36,5.74l-.12,0c-.16-1.39-.31-2.74-.45-4.09l-5,1c.15,1.73.58,5.07.62,8.16Z" transform="translate(-65 -2902.21)"/><path class="cls-6" d="M324.43,3028.31a17.2,17.2,0,0,0,7.07-2.84l-1.15-4.13a12.49,12.49,0,0,1-5.3,2.24,4.62,4.62,0,0,1-4.07-.87,3.94,3.94,0,0,1-1-1.91c7.94-1.2,12.51-3.88,11.61-8.92-.65-3.68-3.91-5.39-7.91-4.68-7.14,1.26-10.39,8.3-9.32,14.31C315.3,3026.64,318.78,3029.31,324.43,3028.31Zm-.68-16.75c1.33-.23,2.26.31,2.44,1.32.31,1.78-1.83,2.82-6.36,3.58A5,5,0,0,1,323.75,3011.56Z" transform="translate(-65 -2902.21)"/><path class="cls-6" d="M352.77,3023.67a17.25,17.25,0,0,0,7.15-2.63l-1-4.16a12.7,12.7,0,0,1-5.37,2.08,4.63,4.63,0,0,1-4-1,3.93,3.93,0,0,1-.91-1.94c8-1,12.61-3.53,11.86-8.6-.55-3.69-3.76-5.49-7.78-4.9-7.17,1.07-10.62,8-9.72,14C343.69,3021.75,347.09,3024.52,352.77,3023.67Zm-.21-16.75c1.33-.2,2.25.37,2.4,1.38.26,1.79-1.91,2.77-6.46,3.41A5,5,0,0,1,352.56,3006.92Z" transform="translate(-65 -2902.21)"/><path class="cls-6" d="M378.21,3010.83c.3-4.5,2.25-7.16,4.16-7.39,1.47-.17,2.07.74,2.24,2.13a13.19,13.19,0,0,1,.06,2.26l-.77,11.28,5.87-.7.82-11.82a25.68,25.68,0,0,0-.07-3.42c-.41-3.42-2.48-5.19-5.73-4.81a8.44,8.44,0,0,0-6.56,4.58h-.08v-3.35l-5.21.62c0,1.78-.1,4-.29,6.6l-.93,13.73,5.86-.69Z" transform="translate(-65 -2902.21)"/><path class="cls-6" d="M409.41,3007.22c.43-4.11,2.29-6.78,4.34-7,1.47-.13,2.12.76,2.23,2.07a12.29,12.29,0,0,1-.06,2.51L414.83,3016l5.88-.51,1.17-11.63a24.81,24.81,0,0,0,.05-3.63c-.3-3.43-2.39-5.22-5.49-4.95a8.31,8.31,0,0,0-6.11,3.58l-.09,0,1.2-11.75-5.88.51L402.61,3017l5.88-.51Z" transform="translate(-65 -2902.21)"/><path class="cls-6" d="M442.78,3014.43c7-.39,11.66-6,11.25-13.35-.25-4.55-3.56-8.06-8.92-7.77-7.13.4-11.65,6.36-11.26,13.31C434.12,3011.58,437.71,3014.71,442.78,3014.43Zm1.79-16.61c2.38-.13,3.26,1.79,3.37,3.63.19,3.44-1.35,8.25-4.59,8.43-2.05.11-3.28-1.38-3.41-3.72C439.73,3003.06,441.18,2998,444.57,2997.82Z" transform="translate(-65 -2902.21)"/><path class="cls-6" d="M471.53,3006.08v0l-2.91-10.93,4.71-1.25.2-1.21-5.91.13L465.79,3004a18.11,18.11,0,0,0-.33,3.69c.09,3.82,2.06,5.58,5.25,5.5a7.9,7.9,0,0,0,2.6-.51l-1.35-5.07A3,3,0,0,1,471.53,3006.08Z" transform="translate(-65 -2902.21)"/><path class="cls-6" d="M482.55,3012.51c.24-1.81.48-4,.91-6.54l2.28-13.58-5.9.13-1.39,8.32,3.12,11.7Z" transform="translate(-65 -2902.21)"/><path class="cls-6" d="M471.53,3006.06a17,17,0,0,1,.23-2.61l1.57-9.57-4.71,1.25Z" transform="translate(-65 -2902.21)"/><path class="cls-6" d="M477.55,3009.35h.09l-.3,3.29,4.23-.09-3.12-11.7-.16,1c-.69,4-2.69,6.49-4.7,6.54a1.76,1.76,0,0,1-1.63-.72l1.35,5.07A9.62,9.62,0,0,0,477.55,3009.35Z" transform="translate(-65 -2902.21)"/><path class="cls-6" d="M510.07,3005.85c0-2.79-2.27-4.4-4.43-5.53-1.64-.78-2.45-1.49-2.45-2.31,0-1.06,1.08-1.75,2.64-1.74a9.3,9.3,0,0,1,4,.93l1.42-4.18a11.07,11.07,0,0,0-5.16-1.06c-5.16,0-8.83,2.69-8.86,6.83,0,2.5,1.9,4.2,4.23,5.36,1.84.92,2.49,1.62,2.49,2.6s-.88,1.8-2.56,1.79a13.24,13.24,0,0,1-5.24-1.43l-1.46,4.13a11.19,11.19,0,0,0,6.14,1.6C506.13,3012.87,510,3010.44,510.07,3005.85Z" transform="translate(-65 -2902.21)"/><path class="cls-6" d="M529.74,3013.4a17.27,17.27,0,0,0,7.51-1.3l-.26-4.27a12.59,12.59,0,0,1-5.66,1.07,4.62,4.62,0,0,1-3.79-1.69,4,4,0,0,1-.55-2.07c8,.49,13-1.18,13.23-6.31.13-3.72-2.7-6.08-6.76-6.22-7.25-.26-11.89,5.94-12.11,12C521.17,3009.86,524,3013.2,529.74,3013.4Zm2.84-16.52c1.35,0,2.14.78,2.11,1.8-.07,1.8-2.38,2.38-7,2.18A5,5,0,0,1,532.58,2996.88Z" transform="translate(-65 -2902.21)"/><path class="cls-6" d="M578.59,3016.26a29.77,29.77,0,0,0,9-.78l4-14.17-10-.87-1.3,4.61,4.24.37-1.6,5.71a7.59,7.59,0,0,1-3,.23c-4.33-.38-6.86-2.94-6.46-7.56a10.45,10.45,0,0,1,11.95-10.15,14.86,14.86,0,0,1,5.74,1.65l2.19-4.83a18.53,18.53,0,0,0-7.2-1.86,18.86,18.86,0,0,0-12.48,2.95,16.3,16.3,0,0,0-6.73,12.09,11.18,11.18,0,0,0,2.74,8.79C571.77,3014.68,574.79,3015.93,578.59,3016.26Z" transform="translate(-65 -2902.21)"/><path class="cls-6" d="M606.54,3019.31c2.32.29,5-.5,7.22-3.56h.12c-.3,1.41-.58,2.74-.77,3.91l5.41.67a49.22,49.22,0,0,1,1.88-8.85l3.41-10.16a24,24,0,0,0-6.47-1.79c-9.8-1.22-15.13,5.4-16,12.11C600.87,3015.8,603,3018.87,606.54,3019.31Zm1.08-8c.46-3.7,3.8-8,7.59-7.53a9,9,0,0,1,1.56.36l-1.5,4.48c-1.51,4.77-3.91,6.5-5.66,6.28S607.38,3013.26,607.62,3011.31Z" transform="translate(-65 -2902.21)"/><path class="cls-6" d="M646,3017.69c.42-2.75-1.6-4.69-3.58-6.11-1.5-1-2.2-1.84-2.08-2.65.17-1,1.33-1.58,2.87-1.34a9.35,9.35,0,0,1,3.83,1.51l2-3.92a10.94,10.94,0,0,0-5-1.8c-5.1-.8-9.13,1.36-9.77,5.45-.38,2.47,1.27,4.43,3.4,5.92,1.68,1.18,2.23,2,2.08,2.94s-1.13,1.65-2.79,1.39a13.22,13.22,0,0,1-5-2.18l-2.05,3.87a11.23,11.23,0,0,0,5.84,2.48C641.09,3024.06,645.31,3022.23,646,3017.69Z" transform="translate(-65 -2902.21)"/><path class="cls-6" d="M670.89,3022.1c.51-2.74-1.46-4.73-3.4-6.21-1.47-1.06-2.15-1.89-2-2.7.19-1.05,1.37-1.54,2.9-1.26a9.46,9.46,0,0,1,3.79,1.61l2.12-3.86a11,11,0,0,0-4.89-1.94c-5.08-.93-9.17,1.11-9.91,5.18-.46,2.46,1.13,4.46,3.22,6,1.65,1.22,2.17,2,2,3s-1.17,1.62-2.82,1.32a13.06,13.06,0,0,1-4.91-2.32l-2.16,3.81a11.18,11.18,0,0,0,5.76,2.65C665.79,3028.33,670.06,3026.62,670.89,3022.1Z" transform="translate(-65 -2902.21)"/><path class="cls-6" d="M688.91,3033a17.29,17.29,0,0,0,7.62,0l.5-4.25a12.65,12.65,0,0,1-5.76.06,4.61,4.61,0,0,1-3.44-2.33,4,4,0,0,1-.17-2.14c7.81,1.89,13.05,1.13,14.13-3.88.78-3.65-1.59-6.46-5.56-7.31-7.09-1.53-12.76,3.75-14,9.72C681.09,3028,683.3,3031.77,688.91,3033Zm5.69-15.76c1.33.28,2,1.14,1.77,2.14-.38,1.76-2.77,1.92-7.25.91A5,5,0,0,1,694.6,3017.22Z" transform="translate(-65 -2902.21)"/><path class="cls-6" d="M713,3038.48c5.13,1.26,9.5-.19,10.6-4.65.67-2.71-1.18-4.81-3-6.41-1.4-1.14-2-2-1.84-2.81.26-1,1.46-1.46,3-1.09a9.26,9.26,0,0,1,3.69,1.84l2.35-3.73a11,11,0,0,0-4.77-2.23c-5-1.23-9.21.56-10.2,4.58-.6,2.43.87,4.52,2.86,6.2,1.58,1.31,2,2.15,1.81,3.1s-1.27,1.55-2.9,1.15a13.26,13.26,0,0,1-4.76-2.61l-2.38,3.67A11.07,11.07,0,0,0,713,3038.48Z" transform="translate(-65 -2902.21)"/><path class="cls-4" d="M214.81,2985.85,260.67,2928l-76.39-25.82-2.56,7.58L247.33,2932l-46.14,58.18,38,11.29q8-1.8,16.18-3.54Z" transform="translate(-65 -2902.21)"/><path class="cls-4" d="M328.08,3094.92,257.53,3081l9.75-24.06c-3.19.68-6.34,1.37-9.47,2.07l-11.34,28,71.45,14.09-4,13.53q4.43-1,8.89-1.87Z" transform="translate(-65 -2902.21)"/><path class="cls-4" d="M362.06,3204.06l-57.68-28.82,18.44-62.5q-4.47.91-8.89,1.87l-19.11,64.8,70.39,35.17,2.92-5.84-5.48.6Z" transform="translate(-65 -2902.21)"/><polygon class="cls-4" points="297.06 301.85 297.65 307.13 303.13 306.52 303.79 305.21 297.06 301.85"/><path class="cls-4" d="M271.32,3033.93a7.65,7.65,0,0,0,2.8-1.16l-.24-5.92-3.34.78-2.63,6.48A8.93,8.93,0,0,0,271.32,3033.93Z" transform="translate(-65 -2902.21)"/><path class="cls-4" d="M270.17,3010.38a18.51,18.51,0,0,1,7.43-.47l-.58,5.27a11.63,11.63,0,0,0-1.37-.17l-2.95,7.28,6.62-1.54.24,5.91,7.8-19.24-32-9.52q-8.21,1.74-16.18,3.54l30.51,9.07Z" transform="translate(-65 -2902.21)"/><path class="cls-4" d="M275,3037.92a24.11,24.11,0,0,1-3.43,1.09,16.14,16.14,0,0,1-5.79.36l-8,19.65c3.13-.7,6.28-1.39,9.47-2.07Z" transform="translate(-65 -2902.21)"/><path class="cls-4" d="M275.65,3015a11.63,11.63,0,0,1,1.37.17l.58-5.27a18.51,18.51,0,0,0-7.43.47l-.49.13,7,2.07Z" transform="translate(-65 -2902.21)"/><path class="cls-4" d="M271.57,3039a24.11,24.11,0,0,0,3.43-1.09l4.56-11.26-.24-5.91-6.62,1.54-2.16,5.34,3.34-.78.24,5.92a7.65,7.65,0,0,1-2.8,1.16,8.93,8.93,0,0,1-3.41.18l-2.13,5.26A16.14,16.14,0,0,0,271.57,3039Z" transform="translate(-65 -2902.21)"/><path class="cls-7" d="M843,3024v-61a27,27,0,0,0-54,0v51.91q14.13,4.32,28.1,9.09Zm-52-18h0Zm0-12h0Zm0-12h0Zm0-12h0Z" transform="translate(-65 -2902.21)"/><path class="cls-7" d="M817.1,3024q-14-4.76-28.1-9.09V3024Zm-26.1-6h0Z" transform="translate(-65 -2902.21)"/><path class="cls-8" d="M843,3033.25V3024H817.1Q830.12,3028.44,843,3033.25Z" transform="translate(-65 -2902.21)"/><path class="cls-8" d="M789,3135c0,.27,0,.55,0,.82a42.71,42.71,0,0,0-4.7,4.62,480.78,480.78,0,0,1,73.23,33.65A41.91,41.91,0,0,0,843,3135.82c0-.27,0-.55,0-.82v-37.15q-26.64-10.76-54-19.76Zm65,36-13-32S856,3152,854,3171Zm-56-81h0Zm0,12h0Zm0,12h0Zm0,12h0Z" transform="translate(-65 -2902.21)"/><path class="cls-8" d="M779,3148.22a261.71,261.71,0,0,1,75.64,36.38,41.7,41.7,0,0,0,3-10.51,480.78,480.78,0,0,0-73.23-33.65A41.89,41.89,0,0,0,779,3148.22Z" transform="translate(-65 -2902.21)"/><path class="cls-8" d="M774,3168a42,42,0,0,0,80.59,16.6A261.71,261.71,0,0,0,779,3148.22,41.87,41.87,0,0,0,774,3168Z" transform="translate(-65 -2902.21)"/><path class="cls-8" d="M789,3024v54.09q27.36,9,54,19.76v-64.6q-12.87-4.82-25.9-9.25Zm9,6h0Zm-7,48h0Zm0-12h0Zm0-12h0Zm0-12h0Z" transform="translate(-65 -2902.21)"/><path class="cls-8" d="M841,3139l13,32C856,3152,841,3139,841,3139Z" transform="translate(-65 -2902.21)"/><path class="cls-9" d="M841,3139l13,32C856,3152,841,3139,841,3139Z" transform="translate(-65 -2902.21)"/><polygon class="cls-10" points="71.98 334.36 77.58 338.74 79.01 338.6 72.87 334.27 71.98 334.36"/><path class="cls-11" d="M283.09,3204.69l.31,3.19-3.09.3L280,3205l-24.35,2.44v0l-2.42.2-12.38,1.24a34.46,34.46,0,0,1-2.38,3.5l1.92-.19.19,1.94-3.86.38a69.38,69.38,0,0,1-5.55,5.61l42.11-4.09.29,2.93-46.25,4.48c-1.47,1.21-3,2.43-4.63,3.64l40.48-3.92.15,1.61L220.18,3229q-2.67,1.93-5.54,3.88l40.87-4,.15,1.55-41,4-.14-1.5c-2.95,2-6,4-9.24,6l70.22-6.81a13.13,13.13,0,0,1-.72-3.15,13,13,0,1,1,25.84-2.51,13.36,13.36,0,0,1-.11,3.23l23.49-2.28c9-.87,1.11-13.69-8.58-20.55q.78.78,1.53,1.62h0c-8.48,2.28-12.85-4-13.88-5.76l-14.67,1.42h0Z" transform="translate(-65 -2902.21)"/><path class="cls-11" d="M214.55,3232.89h.09q2.87-2,5.54-3.88l-11.53,1.11-.16-1.61,14.21-1.38c1.62-1.21,3.16-2.43,4.63-3.64L201.67,3226l-.29-2.92,29.8-2.89a69.38,69.38,0,0,0,5.55-5.61l-8.14.79-.19-1.94,10.08-1a34.46,34.46,0,0,0,2.38-3.5l-12.77,1.28h0l-3.07.29-59.13,5.92.19-.39-8.39.81a5.8,5.8,0,0,0-2.84,1.22c2.13,1.3,4.44,3.8-4.58,5.74a38,38,0,0,0-4,11.27l.74.52,6.22-.6c-2.45,3,.12,4.91.12,4.91l-4.15.4-2,2.81-.6-.42a2.76,2.76,0,0,0,2.94,1.65l24.31-2.36a12.65,12.65,0,0,1-.72-3.16,13,13,0,1,1,25.73.73l6.39-.62c3.2-2,6.29-4,9.24-6Z" transform="translate(-65 -2902.21)"/><path class="cls-11" d="M149.24,3240.3l4.15-.4s-2.57-2-.12-4.91l-6.22.6,3.69,2.6Z" transform="translate(-65 -2902.21)"/><path class="cls-11" d="M246,3208.28l-3.05.24h0l-2,.2,0,.05Z" transform="translate(-65 -2902.21)"/><path class="cls-11" d="M242.63,3190.57h.18l8.59-.84h0l3.36-.32,0,.41c6.9,2,23.88,15.13,23.88,15.13l-23,2.3v.1L280,3205l-.53-5.47,3.08-.3c-7.15-5.8-18.88-14.58-23.83-14.1L247,3186.23l.63.77-11.14,1.08.4-.86-3.47.33a29.15,29.15,0,0,1,5,3.43Z" transform="translate(-65 -2902.21)"/><path class="cls-11" d="M288.44,3204.15s-2.4-2.12-5.89-4.94l.54,5.46Z" transform="translate(-65 -2902.21)"/><path class="cls-11" d="M241,3208.76l0-.05L228.07,3210h0Z" transform="translate(-65 -2902.21)"/><path class="cls-11" d="M166.08,3216l6.89-.67c8.07-17.66,12.8-19.27,17.69-19.74l11.15-1.09h0l.42,0,19.09-1.85-.27-2.8,5-.49.28,2.81,12.14-1.18a29.15,29.15,0,0,0-5-3.43l-46.63,4.53C181.32,3192.61,176.65,3194.47,166.08,3216Z" transform="translate(-65 -2902.21)"/><polygon class="cls-11" points="157.65 308.33 158.05 308.29 158.05 308.29 157.65 308.33"/><path class="cls-11" d="M241,3208.76l-.09.16,12.38-1.24-7.27.6Z" transform="translate(-65 -2902.21)"/><polygon class="cls-11" points="215 302.79 215 302.76 190.65 305.13 190.65 305.23 215 302.79"/><polygon class="cls-11" points="218.09 302.48 223.44 301.94 223.44 301.94 218.09 302.46 218.09 302.48"/><path class="cls-11" d="M225,3210.5l-2,.19,0-.19-.4,0-16.59,1.66v.09l-5.4.45-27.76,2.77.07-.15-6.89.67-.19.39Z" transform="translate(-65 -2902.21)"/><path class="cls-11" d="M228.07,3210l0,.19,12.77-1.28.09-.16Z" transform="translate(-65 -2902.21)"/><path class="cls-12" d="M240.65,3193.2l2-2.63-4.15.41A18,18,0,0,1,240.65,3193.2Z" transform="translate(-65 -2902.21)"/><path class="cls-12" d="M278.66,3204.94s-17-13.15-23.88-15.13l.86,17.43Z" transform="translate(-65 -2902.21)"/><path class="cls-12" d="M242.55,3196.29c1.64,3.85.94,8-1.57,12.42l2-.2,8.47-18.79-8.59.84,2.68-.26Z" transform="translate(-65 -2902.21)"/><path class="cls-12" d="M193.33,3213.34l8.48-18.81-11.15,1.09c-4.89.47-9.62,2.08-17.69,19.74l23.41-2.27Zm-14.86,1.44L193,3195.39l2.86-.28L186.62,3214Z" transform="translate(-65 -2902.21)"/><path class="cls-12" d="M241,3208.71c2.51-4.4,3.21-8.57,1.57-12.42l-6.34,12.89-8.15.79,12.59-16.77a18,18,0,0,0-2.17-2.22l-12.14,1.18,1.73,17.84Z" transform="translate(-65 -2902.21)"/><path class="cls-12" d="M206.06,3212.15l16.59-1.61.4,0-1.73-17.86-19.09,1.85,2.93-.28Z" transform="translate(-65 -2902.21)"/><polygon class="cls-12" points="141.06 309.99 157.65 308.33 141.06 309.94 141.06 309.99"/><path class="cls-12" d="M200.66,3212.74l-4.28.35L173,3215.36l-.07.15Z" transform="translate(-65 -2902.21)"/><polygon class="cls-11" points="163.09 308 163.09 307.99 160.02 308.29 163.09 308"/><polygon class="cls-11" points="163.07 307.79 158.05 308.29 158.05 308.29 163.07 307.8 163.07 307.79"/><path class="cls-11" d="M226.06,3189.35l-5,.49.27,2.8,5-.48Z" transform="translate(-65 -2902.21)"/><polygon class="cls-11" points="158.05 308.29 158.07 308.48 160.02 308.29 163.09 307.99 163.07 307.8 158.05 308.29"/><path class="cls-11" d="M228.07,3210l-1.73-17.84-5,.48,1.73,17.86Z" transform="translate(-65 -2902.21)"/><path class="cls-11" d="M243.57,3182l-4.48.43-2.17,4.76,10.11-1Z" transform="translate(-65 -2902.21)"/><path class="cls-11" d="M247.66,3187l-.63-.77-10.11,1-.4.86Z" transform="translate(-65 -2902.21)"/><path class="cls-10" d="M288.46,3235.15a7.49,7.49,0,0,1-7.13-3.59l-5.79.56a13,13,0,0,0,25-2.43l-5.79.57A7.47,7.47,0,0,1,288.46,3235.15Z" transform="translate(-65 -2902.21)"/><path class="cls-10" d="M300.66,3226.46a13,13,0,1,0-25.84,2.51,13.13,13.13,0,0,0,.72,3.15l5.79-.56a7.48,7.48,0,1,1,13.85-4.57,7.44,7.44,0,0,1-.42,3.27l5.79-.57A13.36,13.36,0,0,0,300.66,3226.46Z" transform="translate(-65 -2902.21)"/><path class="cls-13" d="M288.46,3235.15a7.47,7.47,0,0,0,6.3-4.89l-13.43,1.3A7.49,7.49,0,0,0,288.46,3235.15Z" transform="translate(-65 -2902.21)"/><path class="cls-13" d="M295.18,3227a7.47,7.47,0,1,0-13.85,4.57l13.43-1.3A7.44,7.44,0,0,0,295.18,3227Z" transform="translate(-65 -2902.21)"/><path class="cls-10" d="M187.37,3250.49a13,13,0,0,0,10.21-6.84c-3.89,2.31-7.87,4.61-11.9,6.88A13.67,13.67,0,0,0,187.37,3250.49Z" transform="translate(-65 -2902.21)"/><path class="cls-10" d="M193.14,3240.12a7.47,7.47,0,0,1-13.43,1.3l-5.79.56a13,13,0,0,0,11.76,8.55c4-2.27,8-4.57,11.9-6.88a13.1,13.1,0,0,0,1.35-4.1Z" transform="translate(-65 -2902.21)"/><path class="cls-10" d="M178.67,3238.29a7.48,7.48,0,1,1,14.47,1.83l5.79-.57a13,13,0,1,0-25.73-.73,12.65,12.65,0,0,0,.72,3.16l5.79-.56A7.4,7.4,0,0,1,178.67,3238.29Z" transform="translate(-65 -2902.21)"/><path class="cls-13" d="M186.84,3245a7.49,7.49,0,0,0,6.3-4.89l-13.43,1.3A7.47,7.47,0,0,0,186.84,3245Z" transform="translate(-65 -2902.21)"/><path class="cls-13" d="M193.56,3236.85a7.48,7.48,0,0,0-14.89,1.44,7.4,7.4,0,0,0,1,3.13l13.43-1.3A7.46,7.46,0,0,0,193.56,3236.85Z" transform="translate(-65 -2902.21)"/><path class="cls-14" d="M315.46,3206.86c-3.12-3.11-6.43-5.17-9.14-4.91l-3.46.34s.07.14.22.39l0,.05.8-.08C307.4,3202.32,311.57,3204.11,315.46,3206.86Z" transform="translate(-65 -2902.21)"/><path class="cls-14" d="M317,3208.49h0q-.75-.84-1.53-1.62c-3.89-2.75-8.06-4.54-11.55-4.21l-.8.08C304.14,3204.48,308.51,3210.77,317,3208.49Z" transform="translate(-65 -2902.21)"/><path class="cls-14" d="M154.85,3218.06c-.42-.25-.83-.46-1.15-.61a32.84,32.84,0,0,0-3.45,6.35h0A17.84,17.84,0,0,1,154.85,3218.06Z" transform="translate(-65 -2902.21)"/><path class="cls-14" d="M154.85,3218.06a17.84,17.84,0,0,0-4.58,5.74C159.29,3221.86,157,3219.36,154.85,3218.06Z" transform="translate(-65 -2902.21)"/><path class="cls-10" d="M273.58,3219l-.29-2.93-42.11,4.09c-1.21,1.1-2.5,2.21-3.85,3.32Z" transform="translate(-65 -2902.21)"/><path class="cls-10" d="M201.67,3226l25.66-2.49c1.35-1.11,2.64-2.22,3.85-3.32l-29.8,2.89Z" transform="translate(-65 -2902.21)"/><path class="cls-10" d="M263.33,3224.81l-.15-1.61-40.48,3.92c-.82.63-1.66,1.25-2.52,1.88Z" transform="translate(-65 -2902.21)"/><path class="cls-10" d="M208.65,3230.11l11.53-1.11c.86-.63,1.7-1.25,2.52-1.88l-14.21,1.38Z" transform="translate(-65 -2902.21)"/><path class="cls-10" d="M214.7,3234.43l41-4-.15-1.55-40.87,4-.08,0Z" transform="translate(-65 -2902.21)"/><path class="cls-10" d="M214.56,3232.93l.08,0h-.09Z" transform="translate(-65 -2902.21)"/><polygon class="cls-15" points="128.04 293.18 113.47 312.57 121.62 311.78 130.9 292.9 128.04 293.18"/><path class="cls-15" d="M201.81,3194.53h0l.42,0Z" transform="translate(-65 -2902.21)"/><polygon class="cls-15" points="141.06 310.08 141.06 309.99 135.66 310.52 141.06 310.08"/><path class="cls-15" d="M196.38,3213.09l9.68-.94-.9-17.94-2.93.28-.42,0-8.48,18.81Z" transform="translate(-65 -2902.21)"/><polygon class="cls-15" points="131.38 310.88 135.66 310.52 141.06 309.99 141.06 309.94 131.38 310.88"/><path class="cls-15" d="M242.63,3190.57Z" transform="translate(-65 -2902.21)"/><path class="cls-15" d="M242.55,3196.29l2.94-6-2.68.26h-.18l-2,2.63A13.1,13.1,0,0,1,242.55,3196.29Z" transform="translate(-65 -2902.21)"/><path class="cls-15" d="M228.06,3210l8.15-.79,6.34-12.89a13.1,13.1,0,0,0-1.9-3.09Z" transform="translate(-65 -2902.21)"/><polygon class="cls-15" points="190.66 305.27 190.65 305.23 188.24 305.47 190.66 305.27"/><path class="cls-15" d="M254.78,3189.81l0-.41-3.36.32h0l1.65-.16A4.92,4.92,0,0,1,254.78,3189.81Z" transform="translate(-65 -2902.21)"/><polygon class="cls-15" points="177.93 306.31 180.97 306.06 190.65 305.13 190.64 305.03 177.93 306.3 177.93 306.31"/><polygon class="cls-15" points="188.24 305.47 190.65 305.23 190.65 305.13 180.97 306.06 188.24 305.47"/><path class="cls-15" d="M255.64,3207.24l-.86-17.43a4.92,4.92,0,0,0-1.73-.25l-1.65.16-8.47,18.79Z" transform="translate(-65 -2902.21)"/><path class="cls-16" d="M240.59,3214.17l-.19-1.94-1.92.19c-.54.7-1.13,1.41-1.75,2.13Z" transform="translate(-65 -2902.21)"/><path class="cls-16" d="M228.59,3215.34l8.14-.79c.62-.72,1.21-1.43,1.75-2.13l-10.08,1Z" transform="translate(-65 -2902.21)"/><polygon class="cls-16" points="217.56 296.99 217.55 296.99 217.56 297 217.56 296.99"/><polygon class="cls-16" points="215.31 305.96 218.4 305.67 218.09 302.48 215 302.79 215.31 305.96"/><rect class="cls-16" x="279.72" y="3199.34" width="3.1" height="5.49" transform="translate(-373.02 -2860.06) rotate(-5.54)"/><polygon class="cls-16" points="218.09 302.48 218.09 302.46 215 302.76 215 302.79 218.09 302.48"/><path class="cls-17" d="M144,3240.81l2.66,1.88a6.7,6.7,0,0,1-.6-2.08Z" transform="translate(-65 -2902.21)"/><path class="cls-17" d="M146.31,3235.07l-10.62-7.49-1.56,2.2a2.65,2.65,0,0,1-1.21,2l-.26.09-.44.62,5.65,4,8.35-.81Z" transform="translate(-65 -2902.21)"/><path class="cls-17" d="M146.22,3235.67l-8.35.81,6.14,4.33,2.06-.2A17.84,17.84,0,0,1,146.22,3235.67Z" transform="translate(-65 -2902.21)"/><path class="cls-17" d="M149.24,3240.3l-3.17.31a6.7,6.7,0,0,0,.6,2.08l.6.42Z" transform="translate(-65 -2902.21)"/><path class="cls-17" d="M147.05,3235.59l-.74-.52-.09.6Z" transform="translate(-65 -2902.21)"/><path class="cls-17" d="M146.07,3240.61l3.17-.31,1.5-2.11-3.69-2.6-.83.08A17.84,17.84,0,0,0,146.07,3240.61Z" transform="translate(-65 -2902.21)"/><path class="cls-18" d="M137.8,3180c9.17-4.95,11.57-18.87,5.31-31.36A31.15,31.15,0,0,0,132,3136.08c2.34-5.85,2-13.5-1.59-20.59a27.61,27.61,0,0,0-9.38-10.77c-.21-.51-.44-1-.69-1.52a22.82,22.82,0,0,0-2.39-3.78c-23,8.31-40,15.41-49.9,19.74a23,23,0,0,0,2.4,9.22,22.43,22.43,0,0,0,3.26,4.82c-2.57,7.84-1.13,19.46,4.54,30.77,7.67,15.27,20.39,24.69,29.75,22.6a33.86,33.86,0,0,0,3.18,14,314.85,314.85,0,0,1,27.63-19.32C138.47,3180.83,138.14,3180.39,137.8,3180Zm-.87-37.07c1.4-.26,6.29,5.41,7.82,13.81s-.89,16.35-2.29,16.6,1.29-6.35-.23-14.75S135.54,3143.14,136.93,3142.89Zm-11.43-32.32c.92-.17,4.37,4.78,5.67,11.92s0,13.76-1,13.93.65-5.32-.65-12.46S124.58,3110.74,125.5,3110.57Z" transform="translate(-65 -2902.21)"/><path class="cls-18" d="M142.46,3173.3c1.4-.25,3.82-8.2,2.29-16.6s-6.42-14.07-7.82-13.81,3.77,7.26,5.3,15.66S141.07,3173.56,142.46,3173.3Z" transform="translate(-65 -2902.21)"/><path class="cls-18" d="M130.2,3136.42c.92-.17,2.27-6.79,1-13.93s-4.75-12.09-5.67-11.92,2.75,6.26,4.05,13.39S129.28,3136.59,130.2,3136.42Z" transform="translate(-65 -2902.21)"/><path class="cls-18" d="M131.61,3218.17a12.21,12.21,0,0,0,6.71-1.19c8.37-4.22,10.05-17.81,3.76-30.35a37,37,0,0,0-3.28-5.36,314.85,314.85,0,0,0-27.63,19.32c.2.44.4.89.62,1.33a36.47,36.47,0,0,0,6.7,9.36,35.76,35.76,0,0,0,3.32,9.5c3.55,7.08,8.31,11.91,10.85,11.1l1.47-2.1C134.62,3227.27,133.71,3222.91,131.61,3218.17Z" transform="translate(-65 -2902.21)"/><path class="cls-18" d="M84.1,3093.29C73.58,3098.6,67.54,3109,68,3119.16c9.91-4.33,26.92-11.43,49.9-19.74C110.58,3089.94,96.37,3087.09,84.1,3093.29Z" transform="translate(-65 -2902.21)"/><path class="cls-18" d="M134.13,3229.78l-1.47,2.1.26-.09A2.65,2.65,0,0,0,134.13,3229.78Z" transform="translate(-65 -2902.21)"/></svg>