<svg id="leaf" xmlns="http://www.w3.org/2000/svg" viewBox="0 0 243.87 156.42"><defs><style>.cls-1{fill:#008d48;opacity:0.63;}.cls-1,.cls-2{fill-rule:evenodd;}.cls-2{fill:#265627;opacity:0.61;}</style></defs><title>leaf</title><path class="cls-1" d="M960,2631c-13-22.8-11.09-58.85-28-75.5-4.46-4.39-10.92-8.19-21.36-13.11-90.93-42.83-153.59,3.67-184.88,82.39-12.2,30.69-13.23,39.76-1,45.91,40,20.18,78.19,11.78,114.54-4.66,42.6-19.25,62.66-41.42,78.94-76.16,7.15-15.26,11.11-21.13,14-20.74,15.55,2.15,7.71,46.57,27.69,96.53L960,2646Z" transform="translate(-716.13 -2526.1)"/><path class="cls-2" d="M774.57,2633.9c31.7-44.1,47-60.25,97.92-75.32-44.75,19.18-65.7,38.37-97.92,75.32Z" transform="translate(-716.13 -2526.1)"/></svg>