<svg id="Layer_36" data-name="Layer 36" xmlns="http://www.w3.org/2000/svg" viewBox="0 0 270.54 346.19"><defs><style>.cls-1{fill:#008d48;fill-rule:evenodd;opacity:0.63;}</style></defs><title>plam-tree</title><path class="cls-1" d="M254.52,2587.42l12.33,5c-28.39-34.28-49.38-43.29-93.63-43.75,15.69-38.46,22.51-43-14.38-65.89,12.4,21.51,12.48,37.64,6.68,60.15-1.66-29-10.93-42.7-41.66-49.27l5.64,10.39c-21.79-14.75-43.23-3.74-68.59.77,35.41,4.32,77.4,12.89,93.06,34.87-45.74-17-97.5-9.49-133.28,19.69l42.2-4.34,14.66,1.49,4.4-10.79-1.32,12,32.65-7.34c-28.66,21-27.43,43.6-30.9,78.78,18-30,37.34-60.26,67.77-62.8C88.06,2629.17,47.21,2694.87-3,2780l2,29v20c44.41-101.75,90.8-163.52,155.06-252.49-4.3,25.4-1.53,47.28-1,74.64l6.48,1.74-2.23,9.87,12.13,56.16c9.63-27.46,18.05-41,11.13-69.13l9,10.87c-2.44-35-9-66.29-20.22-93.59,20.4,8.82,36.56,29.83,51.54,54.26l4.19-3.68c.7,11.9,5.09,54.27,21.7,34.91,2.83,21.36,8.54,40.81,14.41,61.57C268.63,2667.75,272.84,2633,254.52,2587.42Z" transform="translate(3 -2482.81)"/></svg>