<svg id="red_earth" data-name="red earth" xmlns="http://www.w3.org/2000/svg" viewBox="0 0 956.84 327"><defs><style>.cls-1{fill:#db6d00;}.cls-2{fill:#f21919;}</style></defs><title>redearth</title><path class="cls-1" d="M747.41,3513.08a80.44,80.44,0,0,0-16.5,9.22C698.13,3626.59,516.66,3534.23,481,3612c-12,26.27,3.79,45.54,32.86,59.41-73.59-1.62-154.71,13.93-210.93,31.28-13.26,4.09-23.66,11.83-29.2,21.4-16.75,28.94-16.34,46.11-6.89,57.87H67.61a149.28,149.28,0,0,1,7.28-16.65c19.54-38.29,265.77-171.23,38.5-186.87h0C201.24,3503,333.31,3455,481,3455,579.6,3455,671.24,3476.4,747.41,3513.08Z" transform="translate(-2.58 -3455)"/><path class="cls-1" d="M681.51,3782a80.39,80.39,0,0,0-31.38-73.73,127.48,127.48,0,0,0-12.92-8.65c43.23,4.24,83.46,4.33,103.06,2.16,98.65-10.89,143.41-41.42,155.31-75.18,37.25,46.09,60,99,63.84,155.4Z" transform="translate(-2.58 -3455)"/><path class="cls-2" d="M681.51,3782H266.84c-9.45-11.76-9.86-28.93,6.89-57.87,5.54-9.57,15.94-17.31,29.2-21.4,56.22-17.35,137.34-32.9,210.93-31.28,31.68,15.12,79.09,23.83,123.35,28.17a127.48,127.48,0,0,1,12.92,8.65A80.39,80.39,0,0,1,681.51,3782Z" transform="translate(-2.58 -3455)"/><path class="cls-2" d="M895.58,3626.6c-11.9,33.76-56.66,64.29-155.31,75.18-19.6,2.17-59.83,2.08-103.06-2.16-32.42-19.07-76.34-27.13-123.35-28.17C484.79,3657.58,469,3638.31,481,3612c35.66-77.81,217.13,14.55,249.91-89.74a80.44,80.44,0,0,1,16.5-9.22C808,3542.27,858.85,3581.13,895.58,3626.6Z" transform="translate(-2.58 -3455)"/><path class="cls-2" d="M637.21,3699.62c-32.42-19.07-76.34-27.13-123.35-28.17C545.54,3686.57,593,3695.28,637.21,3699.62Z" transform="translate(-2.58 -3455)"/><path class="cls-2" d="M74.89,3765.35A149.28,149.28,0,0,0,67.61,3782h-65c5.24-77.29,46-147.87,110.79-203.53h0C340.66,3594.12,94.43,3727.06,74.89,3765.35Z" transform="translate(-2.58 -3455)"/></svg>