<svg id="water_bottles" data-name="water bottles" xmlns="http://www.w3.org/2000/svg" viewBox="0 0 622.4 181.43"><defs><style>.cls-1{fill:#38b6f4;}.cls-2{fill:#a8a8a8;}.cls-3{fill:#9b2a2a;}.cls-4{fill:#f73e3e;}.cls-5{fill:#efefef;}.cls-6{fill:#2d6cf9;}</style></defs><title>water-bottles</title><path class="cls-1" d="M578,1360.55a9.65,9.65,0,0,1,9.61,8.83,7.38,7.38,0,0,1,0,.82,9.69,9.69,0,0,1-7.4,9.39,9.65,9.65,0,0,1-1.13,19,9.66,9.66,0,0,1-1.12,19.25,9.66,9.66,0,0,1,0,19.31,9.66,9.66,0,0,1,0,19.31H519a9.66,9.66,0,0,1,0-19.31,9.66,9.66,0,0,1,0-19.31,9.66,9.66,0,0,1-1.11-19.25,9.65,9.65,0,0,1-1.13-19,9.75,9.75,0,0,1-5.3-3.37,9.64,9.64,0,0,1-2.11-6,7.38,7.38,0,0,1,0-.82,9.67,9.67,0,0,1,9.61-8.83,9.66,9.66,0,0,1-9.56-11h-.18c0-12.23,6.74-29.68,17-39.9,13.58-13.58,11.73-27.44,11.73-27.44h21s-1.85,13.86,11.72,27.44c10.23,10.22,17,25.7,17,39.9h-.09a9.66,9.66,0,0,1-9.56,11Z" transform="translate(-232.24 -1275)"/><path class="cls-2" d="M578,1360.55a9.65,9.65,0,0,1,9.61,8.83H509.37a9.67,9.67,0,0,1,9.61-8.83,9.66,9.66,0,0,1-9.56-11h-.18c0-12.23,6.74-29.68,17-39.9,13.58-13.58,11.73-27.44,11.73-27.44h21s-1.85,13.86,11.72,27.44c10.23,10.22,17,25.7,17,39.9h-.09a9.66,9.66,0,0,1-9.56,11Z" transform="translate(-232.24 -1275)"/><rect class="cls-3" x="300.28" width="31.68" height="18.21" rx="2.99"/><rect class="cls-4" x="300.28" width="27.68" height="18.21" rx="2.8"/><path class="cls-5" d="M561.71,1308.67s17.7,9.48,20.2,29.43Z" transform="translate(-232.24 -1275)"/><path class="cls-5" d="M578.67,1362.54a10.36,10.36,0,0,1,6.48,6.74Z" transform="translate(-232.24 -1275)"/><path class="cls-5" d="M579.66,1381.5a10.36,10.36,0,0,1,6.49,6.73Z" transform="translate(-232.24 -1275)"/><path class="cls-5" d="M579.66,1400.45a10.36,10.36,0,0,1,6.49,6.74Z" transform="translate(-232.24 -1275)"/><path class="cls-5" d="M579.66,1419.41a10.36,10.36,0,0,1,6.49,6.73Z" transform="translate(-232.24 -1275)"/><path class="cls-5" d="M579.66,1438.36a10.36,10.36,0,0,1,6.49,6.74Z" transform="translate(-232.24 -1275)"/><path class="cls-6" d="M527.58,1456.43s22.42-9.62,43,0" transform="translate(-232.24 -1275)"/><path class="cls-1" d="M301,1360.55a9.65,9.65,0,0,1,2.25,19,9.65,9.65,0,0,1-1.13,19,9.66,9.66,0,0,1-1.12,19.25,9.66,9.66,0,0,1,0,19.31,9.66,9.66,0,0,1,0,19.31H242a9.66,9.66,0,0,1,0-19.31,9.66,9.66,0,0,1,0-19.31,9.66,9.66,0,0,1-1.11-19.25,9.65,9.65,0,0,1-1.13-19,9.75,9.75,0,0,1-5.3-3.37,9.65,9.65,0,0,1,7.54-15.67,9.66,9.66,0,0,1-9.56-11h-.18c0-12.23,6.74-29.68,17-39.9.43-.43.84-.86,1.24-1.29,12.22-13.15,10.49-26.15,10.49-26.15h21s-1.73,13,10.48,26.15c.4.43.81.86,1.24,1.29,10.23,10.22,17,25.7,17,39.9h-.09a9.66,9.66,0,0,1-9.56,11Z" transform="translate(-232.24 -1275)"/><path class="cls-2" d="M250.44,1308.38c12.22-13.15,10.49-26.15,10.49-26.15h21s-1.73,13,10.48,26.15Z" transform="translate(-232.24 -1275)"/><rect class="cls-3" x="23.28" width="31.68" height="18.21" rx="2.99"/><rect class="cls-4" x="23.28" width="27.68" height="18.21" rx="2.8"/><path class="cls-5" d="M284.71,1308.67s17.7,9.48,20.2,29.43Z" transform="translate(-232.24 -1275)"/><path class="cls-5" d="M301.67,1362.54a10.36,10.36,0,0,1,6.48,6.74Z" transform="translate(-232.24 -1275)"/><path class="cls-5" d="M302.66,1381.5a10.36,10.36,0,0,1,6.49,6.73Z" transform="translate(-232.24 -1275)"/><path class="cls-5" d="M302.66,1400.45a10.36,10.36,0,0,1,6.49,6.74Z" transform="translate(-232.24 -1275)"/><path class="cls-5" d="M302.66,1419.41a10.36,10.36,0,0,1,6.49,6.73Z" transform="translate(-232.24 -1275)"/><path class="cls-5" d="M302.66,1438.36a10.36,10.36,0,0,1,6.49,6.74Z" transform="translate(-232.24 -1275)"/><path class="cls-6" d="M250.58,1456.43s22.42-9.62,43,0" transform="translate(-232.24 -1275)"/><path class="cls-1" d="M845,1360.55a9.65,9.65,0,0,1,2.25,19,9.65,9.65,0,0,1-1.13,19,9.66,9.66,0,0,1-1.12,19.25,9.66,9.66,0,0,1,0,19.31,9.63,9.63,0,0,1,6.82,2.83,10.07,10.07,0,0,1,1.18,1.43,9.65,9.65,0,0,1-8,15H786a9.66,9.66,0,0,1,0-19.31,9.66,9.66,0,0,1,0-19.31,9.66,9.66,0,0,1-1.11-19.25,9.65,9.65,0,0,1-1.13-19,9.75,9.75,0,0,1-5.3-3.37,9.65,9.65,0,0,1,7.54-15.67,9.66,9.66,0,0,1-9.56-11h-.18c0-12.23,6.74-29.68,17-39.9,13.58-13.58,11.73-27.44,11.73-27.44h21s-1.85,13.86,11.72,27.44c10.23,10.22,17,25.7,17,39.9h-.09a9.66,9.66,0,0,1-9.56,11Z" transform="translate(-232.24 -1275)"/><path class="cls-2" d="M845,1360.55a9.65,9.65,0,0,1,2.25,19,9.65,9.65,0,0,1-1.13,19,9.66,9.66,0,0,1-1.12,19.25,9.66,9.66,0,0,1,0,19.31,9.63,9.63,0,0,1,6.82,2.83,10.07,10.07,0,0,1,1.18,1.43H778a9.68,9.68,0,0,1,8-4.26,9.66,9.66,0,0,1,0-19.31,9.66,9.66,0,0,1-1.11-19.25,9.65,9.65,0,0,1-1.13-19,9.75,9.75,0,0,1-5.3-3.37,9.65,9.65,0,0,1,7.54-15.67,9.66,9.66,0,0,1-9.56-11h-.18c0-12.23,6.74-29.68,17-39.9,13.58-13.58,11.73-27.44,11.73-27.44h21s-1.85,13.86,11.72,27.44c10.23,10.22,17,25.7,17,39.9h-.09a9.66,9.66,0,0,1-9.56,11Z" transform="translate(-232.24 -1275)"/><rect class="cls-3" x="567.28" width="31.68" height="18.21" rx="2.99"/><rect class="cls-4" x="567.28" width="27.68" height="18.21" rx="2.8"/><path class="cls-5" d="M828.71,1308.67s17.7,9.48,20.2,29.43Z" transform="translate(-232.24 -1275)"/><path class="cls-5" d="M845.67,1362.54a10.36,10.36,0,0,1,6.48,6.74Z" transform="translate(-232.24 -1275)"/><path class="cls-5" d="M846.66,1381.5a10.36,10.36,0,0,1,6.49,6.73Z" transform="translate(-232.24 -1275)"/><path class="cls-5" d="M846.66,1400.45a10.36,10.36,0,0,1,6.49,6.74Z" transform="translate(-232.24 -1275)"/><path class="cls-5" d="M846.66,1419.41a10.36,10.36,0,0,1,6.49,6.73Z" transform="translate(-232.24 -1275)"/><path class="cls-5" d="M846.66,1438.36a10.36,10.36,0,0,1,6.49,6.74Z" transform="translate(-232.24 -1275)"/><path class="cls-6" d="M794.58,1456.43s22.42-9.62,43,0" transform="translate(-232.24 -1275)"/></svg>