<svg id="water-svg" xmlns="http://www.w3.org/2000/svg" xmlns:xlink="http://www.w3.org/1999/xlink" viewBox="0 0 152 152">



<style>.cls-1,.cls-7{fill:none;}.cls-2{clip-path:url(#clip-path);}.cls-3{fill:#0065a8;}.cls-4{fill:#0072b8;}.cls-5{fill:#007bc7;}.cls-6{fill:#0084d6;}.cls-7{stroke:#fff8f8;stroke-miterlimit:10;stroke-width:12px;}#water-svg{cursor:pointer;}

        .bounceIn {
  -webkit-animation-name: bounceIn;
  animation-name: bounceIn;
  -webkit-animation-duration: .75s;
  animation-duration: .75s;
  -webkit-animation-duration: 1s;
  animation-duration: 1s;
  -webkit-animation-fill-mode: both;
  animation-fill-mode: both;
  }
  @-webkit-keyframes bounceIn {
  0%, 20%, 40%, 60%, 80%, 100% {
  -webkit-transition-timing-function: cubic-bezier(0.215, 0.610, 0.355, 1.000);
  transition-timing-function: cubic-bezier(0.215, 0.610, 0.355, 1.000);
  }
  0% {
  opacity: 0;
  -webkit-transform: scale3d(.3, .3, .3);
  transform: scale3d(.3, .3, .3);
  }
  20% {
  -webkit-transform: scale3d(1.1, 1.1, 1.1);
  transform: scale3d(1.1, 1.1, 1.1);
  }
  40% {
  -webkit-transform: scale3d(.9, .9, .9);
  transform: scale3d(.9, .9, .9);
  }
  60% {
  opacity: 1;
  -webkit-transform: scale3d(1.03, 1.03, 1.03);
  transform: scale3d(1.03, 1.03, 1.03);
  }
  80% {
  -webkit-transform: scale3d(.97, .97, .97);
  transform: scale3d(.97, .97, .97);
  }
  100% {
  opacity: 1;
  -webkit-transform: scale3d(1, 1, 1);
  transform: scale3d(1, 1, 1);
  }
  }
  @keyframes bounceIn {
  0%, 20%, 40%, 60%, 80%, 100% {
  -webkit-transition-timing-function: cubic-bezier(0.215, 0.610, 0.355, 1.000);
  transition-timing-function: cubic-bezier(0.215, 0.610, 0.355, 1.000);
  }
  0% {
  opacity: 0;
  -webkit-transform: scale3d(.3, .3, .3);
  transform: scale3d(.3, .3, .3);
  }
  20% {
  -webkit-transform: scale3d(1.1, 1.1, 1.1);
  transform: scale3d(1.1, 1.1, 1.1);
  }
  40% {
  -webkit-transform: scale3d(.9, .9, .9);
  transform: scale3d(.9, .9, .9);
  }
  60% {
  opacity: 1;
  -webkit-transform: scale3d(1.03, 1.03, 1.03);
  transform: scale3d(1.03, 1.03, 1.03);
  }
  80% {
  -webkit-transform: scale3d(.97, .97, .97);
  transform: scale3d(.97, .97, .97);
  }
  100% {
  opacity: 1;
  -webkit-transform: scale3d(1, 1, 1);
  transform: scale3d(1, 1, 1);
  }
  } 



</style>





<title>emblem</title><g class="cls-2"><path class="cls-3" d="M538.75,1690a.6.6,0,0,0-.6.54c-.31,2.61-4.27,5.53-9.12,5.53-4.13,0-9.77-3.21-9.77-6.07,0,2.86-4.87,6.07-9.72,6.07-4,0-10.14-3.14-10.14-6.07,0,2.82-5.7,6.07-9.36,6.07-4.84,0-9.72-3.25-9.72-6.07,0,2.86-5,6.07-9.77,6.07s-9.77-3.29-9.77-6.07c0,2.78-4.87,6.07-9.72,6.07s-8.81-2.92-9.12-5.53a.6.6,0,0,0-.6-.54h0a.62.62,0,0,0-.61.54,2.56,2.56,0,0,1-.05.27.57.57,0,0,0,0,.13v29.29a.61.61,0,0,0,.61.61l97.54-.9a.61.61,0,0,0,.61-.61v-28.72A.62.62,0,0,0,538.75,1690Z" transform="translate(-414 -1629)"/><path class="cls-4" d="M538.28,1702.85a.6.6,0,0,0-.6.54c-.31,2.61-4.27,5.54-9.12,5.54-4.13,0-9.77-3.22-9.77-6.08,0,2.86-4.87,6.08-9.72,6.08-4,0-10.14-3.14-10.14-6.08,0,2.82-5.7,6.08-9.36,6.08-4.84,0-9.72-3.26-9.72-6.08,0,2.86-5,6.08-9.77,6.08s-9.77-3.3-9.77-6.08c0,2.78-4.87,6.08-9.72,6.08s-8.81-2.93-9.12-5.54a.6.6,0,0,0-.6-.54h-.05a.62.62,0,0,0-.61.54,2.56,2.56,0,0,1,0,.27.62.62,0,0,0,0,.13v29.3a.61.61,0,0,0,.61.61l97.54-.91a.61.61,0,0,0,.61-.61v-28.72A.63.63,0,0,0,538.28,1702.85Z" transform="translate(-414 -1629)"/><path class="cls-5" d="M538.91,1716.8a.62.62,0,0,0-.61.54c-.3,2.62-4.26,5.54-9.11,5.54-4.13,0-9.77-3.22-9.77-6.08,0,2.86-4.88,6.08-9.73,6.08-4,0-10.14-3.14-10.14-6.08,0,2.82-5.69,6.08-9.35,6.08-4.85,0-9.72-3.26-9.72-6.08,0,2.86-5,6.08-9.77,6.08s-9.77-3.3-9.77-6.08c0,2.78-4.88,6.08-9.72,6.08s-8.82-2.92-9.12-5.54a.62.62,0,0,0-.61-.54h-.05a.6.6,0,0,0-.6.54,2.56,2.56,0,0,1,0,.27.69.69,0,0,0,0,.13V1747a.62.62,0,0,0,.62.61l97.54-.91a.61.61,0,0,0,.61-.61v-28.72A.63.63,0,0,0,538.91,1716.8Z" transform="translate(-414 -1629)"/><path class="cls-6" d="M538.75,1729.81a.6.6,0,0,0-.6.54c-.31,2.62-4.27,5.54-9.12,5.54-4.13,0-9.77-3.22-9.77-6.08,0,2.86-4.87,6.08-9.72,6.08-4,0-10.14-3.14-10.14-6.08,0,2.82-5.7,6.08-9.36,6.08-4.84,0-9.72-3.26-9.72-6.08,0,2.86-5,6.08-9.77,6.08s-9.77-3.3-9.77-6.08c0,2.78-4.87,6.08-9.72,6.08s-8.81-2.92-9.12-5.54a.6.6,0,0,0-.6-.54h0a.62.62,0,0,0-.61.54,2.56,2.56,0,0,1-.05.27.62.62,0,0,0,0,.13v29.3a.61.61,0,0,0,.61.61l97.54-.91a.61.61,0,0,0,.61-.61v-28.72A.63.63,0,0,0,538.75,1729.81Z" transform="translate(-414 -1629)"/></g><circle class="cls-7" cx="76" cy="76" r="70"/>

<defs>

<clipPath id="clip-path" transform="translate(-414 -1629)"><path class="cls-1" d="M538.52,1701.52a48.49,48.49,0,1,1-94.13-16.4c22.77,0,54,2.38,92.07,2.38A48.42,48.42,0,0,1,538.52,1701.52Z"/></clipPath>

    <script>    

        document.querySelector('#water-svg').addEventListener('click', function() {
        console.log('clicked on the SVG!', this.id);
        this.classList.toggle('bounceIn');
        })

    </script>

</defs>  


</svg>