<svg id="waves" xmlns="http://www.w3.org/2000/svg" viewBox="0 0 360.75 146.8"><defs><style>.cls-1{fill:#50c5ff;fill-rule:evenodd;}</style></defs><title>waves</title><path class="cls-1" d="M680.22,858.73c6.06-4,13.3-7,20.26-10.12C678,834.81,637.76,842.3,602.55,859c-6.18,2.93-24.19,10.81-53.55,10.81,27.44-5,78.45-48.3,136-48.3,16.53,0,35.21,9.2,35.21,9.2,1.28.1,32.14-18.1,72.61-1.61,42.74,17.45,44.79-12.13,28.42-16.64-16.69-3.44-21.52,4.51-22.06,4.59-.27-.45,5.45-20.37,34-16.51,29.17,4,33.35,47.41-.28,51.56-12.9,1.59-18.66-.64-32.81-7.36-4.64-2.21-45.58-20.94-71.12-8.16,1.48,1.73,1.88,1.35,3.58,2.87,6.83-.52,12.58-1.67,20-1.15,13.49.94,24.63,5.86,35.95,9.89,8.33,3,16.12,7,24.36,9.89s28.38,8.85,49.87-4.65c10.56-6.63,27-37.47-1.15-59.06-18.9-14-58.4-20.85-76.94,8.51-23.93-31.93,8.18-64.86,39.8-65.78,67.11-2,81.66,47.48,83.7,55.89,4.76,19.62-.81,54.57-22.43,71.3-32.39,25.06-61.18,18.54-62,18.63-28.67-4.09-45-19.92-72.12-25.53,1.62,2.17,12.8,15.84,44.39,26.45-20.78,0-66.61-8.58-86.12-26.68-.8.32-21.08,4.51-22.19,4.37,3.15,2,24.52,13.58,25.09,14.49-15.62.88-35.75-8.86-49.21-9.43-4-.16-24.35-5.53-64.65,5.52C650.53,849.79,675,856.7,680.22,858.73Z" transform="translate(-549 -737)"/></svg>